<svg id="Capa_1" enable-background="new 0 0 497 497" height="512" viewBox="0 0 497 497" width="512" xmlns="http://www.w3.org/2000/svg"><g><g><path d="m467.626 176.705c0-33.259-26.962-60.221-60.221-60.221-.25 0-.496.016-.745.019-4.36-26.788-27.593-47.239-55.613-47.239-10.665 0-20.636 2.964-29.139 8.111-8.464-14.675-24.303-24.56-42.461-24.56-6.993 0-13.639 1.475-19.658 4.115-9.1-32.829-39.195-56.93-74.922-56.93-42.938 0-77.746 34.808-77.746 77.747 0 1.236.032 2.465.089 3.687-.03 0-.059-.001-.089-.001-42.938 0-77.746 34.808-77.746 77.746 0 41.066 31.839 74.691 72.178 77.546v.201h309.367v-.11c31.621-1.82 56.706-28.032 56.706-60.111z" fill="#bae6ef"/></g><g><path d="m227.62 54.288c1.294 3.426 4.985 5.364 8.509 4.368 4.234-1.197 8.701-1.841 13.319-1.841 16.008 0 30.214 7.684 39.153 19.558 2.013 2.674 5.632 3.556 8.667 2.142 6.721-3.132 14.163-4.978 22.009-5.22-8.889-12.397-23.41-20.48-39.828-20.48-6.993 0-13.639 1.476-19.658 4.116-9.102-32.83-39.197-56.931-74.924-56.931-8.79 0-17.23 1.48-25.109 4.169 31.138 1.935 57.313 22.186 67.862 50.119z" fill="#94d8e6"/></g><g><path d="m407.406 116.484c-.25 0-.496.016-.745.019-4.36-26.788-27.593-47.24-55.613-47.24-7.877 0-15.373 1.621-22.181 4.54 26.095 3.08 38.138 17.938 43.713 30.076 4.652 10.128 12.901 18.15 23.156 22.514 17.716 7.537 41.889 23.472 41.889 54.311 0 25.659-16.056 47.549-38.663 56.221h11.955v-.11c31.623-1.82 56.708-28.032 56.708-60.111.001-33.258-26.96-60.22-60.219-60.22z" fill="#94d8e6"/></g><g><path d="m142.966 304.917c0 10.858-8.802 19.661-19.661 19.661-10.858 0-19.661-8.802-19.661-19.661 0-8.655 12.492-27.749 17.561-35.14 1.012-1.476 3.187-1.476 4.199 0 5.07 7.391 17.562 26.485 17.562 35.14z" fill="#94d8e6"/></g><g><path d="m226.429 304.917c0 10.858-8.802 19.661-19.661 19.661-10.858 0-19.661-8.802-19.661-19.661 0-8.655 12.492-27.749 17.561-35.14 1.012-1.476 3.187-1.476 4.199 0 5.07 7.391 17.562 26.485 17.562 35.14z" fill="#dcf2f6"/></g><g><path d="m309.892 304.917c0 10.858-8.802 19.661-19.661 19.661-10.858 0-19.661-8.802-19.661-19.661 0-8.655 12.492-27.749 17.561-35.14 1.012-1.476 3.187-1.476 4.199 0 5.07 7.391 17.562 26.485 17.562 35.14z" fill="#94d8e6"/></g><g><path d="m393.355 304.917c0 10.858-8.802 19.661-19.661 19.661-10.858 0-19.661-8.802-19.661-19.661 0-8.655 12.492-27.749 17.561-35.14 1.012-1.476 3.187-1.476 4.199 0 5.07 7.391 17.562 26.485 17.562 35.14z" fill="#dcf2f6"/></g><g><path d="m142.966 477.339c0 10.858-8.802 19.661-19.661 19.661-10.858 0-19.661-8.802-19.661-19.661 0-8.655 12.492-27.749 17.561-35.14 1.012-1.476 3.187-1.476 4.199 0 5.07 7.392 17.562 26.485 17.562 35.14z" fill="#dcf2f6"/></g><g><path d="m226.429 477.339c0 10.858-8.802 19.661-19.661 19.661-10.858 0-19.661-8.802-19.661-19.661 0-8.655 12.492-27.749 17.561-35.14 1.012-1.476 3.187-1.476 4.199 0 5.07 7.392 17.562 26.485 17.562 35.14z" fill="#94d8e6"/></g><g><path d="m309.892 477.339c0 10.858-8.802 19.661-19.661 19.661-10.858 0-19.661-8.802-19.661-19.661 0-8.655 12.492-27.749 17.561-35.14 1.012-1.476 3.187-1.476 4.199 0 5.07 7.392 17.562 26.485 17.562 35.14z" fill="#dcf2f6"/></g><g><path d="m393.355 477.339c0 10.858-8.802 19.661-19.661 19.661-10.858 0-19.661-8.802-19.661-19.661 0-8.655 12.492-27.749 17.561-35.14 1.012-1.476 3.187-1.476 4.199 0 5.07 7.392 17.562 26.485 17.562 35.14z" fill="#94d8e6"/></g><g><path d="m184.698 392.257c0 10.858-8.803 19.661-19.661 19.661s-19.661-8.802-19.661-19.661c0-8.655 12.492-27.749 17.561-35.14 1.012-1.476 3.187-1.476 4.199 0 5.07 7.391 17.562 26.485 17.562 35.14z" fill="#dcf2f6"/></g><g><path d="m268.161 392.257c0 10.858-8.802 19.661-19.661 19.661s-19.661-8.802-19.661-19.661c0-8.655 12.492-27.749 17.561-35.14 1.012-1.476 3.187-1.476 4.199 0 5.07 7.391 17.562 26.485 17.562 35.14z" fill="#94d8e6"/></g><g><path d="m351.624 392.257c0 10.858-8.803 19.661-19.661 19.661s-19.661-8.802-19.661-19.661c0-8.655 12.492-27.749 17.561-35.14 1.012-1.476 3.187-1.476 4.199 0 5.07 7.391 17.562 26.485 17.562 35.14z" fill="#dcf2f6"/></g></g></svg>